<svg width="66" height="27" viewBox="0 0 66 27" fill="none" xmlns="http://www.w3.org/2000/svg">
<path d="M13.3487 26.8329C11.5447 26.8329 9.85066 26.4919 8.26666 25.8099C6.68266 25.1499 5.28566 24.2259 4.07566 23.0379C2.88766 21.8279 1.95266 20.4309 1.27066 18.8469C0.610656 17.2629 0.280656 15.5689 0.280656 13.7649C0.280656 11.9389 0.610656 10.2449 1.27066 8.68294C1.95266 7.09894 2.88766 5.71294 4.07566 4.52494C5.28566 3.31494 6.68266 2.37994 8.26666 1.71994C9.85066 1.03794 11.5447 0.696937 13.3487 0.696937C15.1747 0.696937 16.8687 1.03794 18.4307 1.71994C20.0147 2.37994 21.4007 3.31494 22.5887 4.52494C23.7987 5.71294 24.7337 7.09894 25.3937 8.68294C26.0757 10.2449 26.4167 11.9389 26.4167 13.7649C26.4167 15.5689 26.0757 17.2629 25.3937 18.8469C24.7337 20.4309 23.7987 21.8279 22.5887 23.0379C21.4007 24.2259 20.0147 25.1499 18.4307 25.8099C16.8687 26.4919 15.1747 26.8329 13.3487 26.8329ZM1.66666 13.7649H13.3487V2.08294C11.7207 2.08294 10.2027 2.39094 8.79466 3.00694C7.38666 3.60094 6.14366 4.43694 5.06566 5.51494C4.00966 6.57094 3.17366 7.80294 2.55766 9.21094C1.96366 10.6189 1.66666 12.1369 1.66666 13.7649ZM47.06 16.8339C47.06 18.1979 46.873 19.4409 46.499 20.5629C46.147 21.6849 45.608 22.6529 44.882 23.4669C44.156 24.2589 43.265 24.8749 42.209 25.3149C41.153 25.7329 39.932 25.9419 38.546 25.9419C37.116 25.9419 35.862 25.7219 34.784 25.2819C33.728 24.8419 32.848 24.2259 32.144 23.4339C31.44 22.6199 30.912 21.6629 30.56 20.5629C30.208 19.4409 30.032 18.1979 30.032 16.8339H33.101C33.101 18.2199 33.288 19.4189 33.662 20.4309C34.058 21.4429 34.663 22.2239 35.477 22.7739C36.291 23.3239 37.314 23.5989 38.546 23.5989C39.8 23.5989 40.823 23.3239 41.615 22.7739C42.429 22.2239 43.023 21.4429 43.397 20.4309C43.793 19.4189 43.991 18.2199 43.991 16.8339H47.06ZM51.805 16.9659V14.3259L65.995 6.10894V8.84794L54.28 15.4809V15.7449L65.995 22.3779V25.1829L51.805 16.9659Z" fill="black"/>
</svg>
