<svg width="48" height="40" viewBox="0 0 48 40" fill="none" xmlns="http://www.w3.org/2000/svg">
<path d="M21.9236 19.8969C21.9236 21.7229 21.6926 23.3839 21.2306 24.8799C20.7686 26.3539 20.0756 27.6299 19.1516 28.7079C18.2496 29.7859 17.1166 30.6109 15.7526 31.1829C14.4106 31.7549 12.8486 32.0409 11.0666 32.0409C9.21857 32.0409 7.61257 31.7549 6.24857 31.1829C4.88457 30.5889 3.75157 29.7639 2.84957 28.7079C1.94757 27.6299 1.27657 26.3429 0.836574 24.8469C0.396574 23.3509 0.176574 21.6899 0.176574 19.8639C0.176574 17.4439 0.572574 15.3319 1.36457 13.5279C2.15657 11.7239 3.35557 10.3159 4.96157 9.30394C6.58957 8.29194 8.63557 7.78594 11.0996 7.78594C13.4536 7.78594 15.4336 8.29194 17.0396 9.30394C18.6456 10.2939 19.8556 11.7019 20.6696 13.5279C21.5056 15.3319 21.9236 17.4549 21.9236 19.8969ZM3.31157 19.8969C3.31157 21.8769 3.58657 23.5819 4.13657 25.0119C4.68657 26.4419 5.53357 27.5419 6.67757 28.3119C7.84357 29.0819 9.30658 29.4669 11.0666 29.4669C12.8486 29.4669 14.3006 29.0819 15.4226 28.3119C16.5666 27.5419 17.4136 26.4419 17.9636 25.0119C18.5136 23.5819 18.7886 21.8769 18.7886 19.8969C18.7886 16.9269 18.1726 14.6059 16.9406 12.9339C15.7086 11.2399 13.7616 10.3929 11.0996 10.3929C9.31757 10.3929 7.84357 10.7779 6.67757 11.5479C5.53357 12.2959 4.68657 13.3849 4.13657 14.8149C3.58657 16.2229 3.31157 17.9169 3.31157 19.8969ZM9.02058 20.0619C9.02058 19.2479 9.21857 18.6759 9.61457 18.3459C10.0106 18.0159 10.4836 17.8509 11.0336 17.8509C11.6056 17.8509 12.0896 18.0159 12.4856 18.3459C12.9036 18.6759 13.1126 19.2479 13.1126 20.0619C13.1126 20.8539 12.9036 21.4259 12.4856 21.7779C12.0896 22.1299 11.6056 22.3059 11.0336 22.3059C10.4836 22.3059 10.0106 22.1299 9.61457 21.7779C9.21857 21.4259 9.02058 20.8539 9.02058 20.0619ZM4.15797 0.924935H17.919V3.26794H4.15797V0.924935ZM19.4684 39.3009C17.3344 39.3009 15.4204 39.0699 13.7264 38.6079C12.0104 38.1459 10.5584 37.4529 9.37043 36.5289C8.16043 35.6049 7.24743 34.4609 6.63143 33.0969H8.94142C9.46943 33.8889 10.1954 34.5709 11.1194 35.1429C12.0434 35.7149 13.1984 36.1549 14.5844 36.4629C15.9484 36.7709 17.5654 36.9249 19.4354 36.9249C20.9974 36.9249 22.4494 36.7929 23.7914 36.5289C25.1334 36.2649 26.3104 35.8469 27.3224 35.2749C28.3564 34.7029 29.1704 33.9769 29.7644 33.0969H32.0744C30.9524 35.2969 29.2804 36.8809 27.0584 37.8489C24.8584 38.8169 22.3284 39.3009 19.4684 39.3009ZM47.7048 19.8969C47.7048 21.7229 47.4738 23.3839 47.0118 24.8799C46.5498 26.3539 45.8568 27.6299 44.9328 28.7079C44.0308 29.7859 42.8978 30.6109 41.5338 31.1829C40.1918 31.7549 38.6298 32.0409 36.8478 32.0409C34.9998 32.0409 33.3938 31.7549 32.0298 31.1829C30.6658 30.5889 29.5328 29.7639 28.6308 28.7079C27.7288 27.6299 27.0578 26.3429 26.6178 24.8469C26.1778 23.3509 25.9578 21.6899 25.9578 19.8639C25.9578 17.4439 26.3538 15.3319 27.1458 13.5279C27.9378 11.7239 29.1368 10.3159 30.7428 9.30394C32.3708 8.29194 34.4168 7.78594 36.8808 7.78594C39.2348 7.78594 41.2148 8.29194 42.8208 9.30394C44.4268 10.2939 45.6368 11.7019 46.4508 13.5279C47.2868 15.3319 47.7048 17.4549 47.7048 19.8969ZM29.0928 19.8969C29.0928 21.8769 29.3678 23.5819 29.9178 25.0119C30.4678 26.4419 31.3148 27.5419 32.4588 28.3119C33.6248 29.0819 35.0878 29.4669 36.8478 29.4669C38.6298 29.4669 40.0818 29.0819 41.2038 28.3119C42.3478 27.5419 43.1948 26.4419 43.7448 25.0119C44.2948 23.5819 44.5698 21.8769 44.5698 19.8969C44.5698 16.9269 43.9538 14.6059 42.7218 12.9339C41.4898 11.2399 39.5428 10.3929 36.8808 10.3929C35.0988 10.3929 33.6248 10.7779 32.4588 11.5479C31.3148 12.2959 30.4678 13.3849 29.9178 14.8149C29.3678 16.2229 29.0928 17.9169 29.0928 19.8969ZM34.8018 20.0619C34.8018 19.2479 34.9998 18.6759 35.3958 18.3459C35.7918 18.0159 36.2648 17.8509 36.8148 17.8509C37.3868 17.8509 37.8708 18.0159 38.2668 18.3459C38.6848 18.6759 38.8938 19.2479 38.8938 20.0619C38.8938 20.8539 38.6848 21.4259 38.2668 21.7779C37.8708 22.1299 37.3868 22.3059 36.8148 22.3059C36.2648 22.3059 35.7918 22.1299 35.3958 21.7779C34.9998 21.4259 34.8018 20.8539 34.8018 20.0619ZM29.9392 0.924935H43.7002V3.26794H29.9392V0.924935Z" fill="black"/>
</svg>
